# xmcd
#
# Track frame offsets:
#	150
#	25715
#	46789
#	70873
#	82680
#	103897
#	134170
#	155088
#	173862
#	196380
#	237115
#	259839
#	285169
#	307309
#	327686
#
# Disc length: 4625
#
# Revision: 2
# Processed by: cddbd v1.5.1PL0 Copyright (c) Steve Scherf et al.
# Submitted via: EasyCDDAExtractor 7.1.0.1
# Normalized: r1:DSETVAR1
#
DISCID=d5120f0f
DTITLE=Various Artist - Simone's Birthday CD
DYEAR=1900
DGENRE=
TTITLE0=Annie Lennox - Waiting In Vain
TTITLE1=Jill Scott - A Long Walk
TTITLE2=Erykah Badu - In Love With You
TTITLE3=Buffalo Springfield - Stop, Hey, What's That Sound
TTITLE4=Damien Rice - The Blowers Daughter
TTITLE5=Jeff Buckley - Lover You Should've Come Over
TTITLE6=Sting - Shape Of My Heart
TTITLE7=George Michael - Roxanne
TTITLE8=Randy Crawford - One Day I'll Fly Away
TTITLE9=Terry Callier - Dancing Girl
TTITLE10=Sugar Brew - Save Your Love For Me
TTITLE11=Stevie Wonder - Ribbon In The Sky
TTITLE12=Des'ree - Kissing You
TTITLE13=Damien Rice - Amie
TTITLE14=Bob Marley and The Wailers - Waiting In Vain
EXTD=
EXTT0=
EXTT1=
EXTT2=
EXTT3=
EXTT4=
EXTT5=
EXTT6=
EXTT7=
EXTT8=
EXTT9=
EXTT10=
EXTT11=
EXTT12=
EXTT13=
EXTT14=
PLAYORDER=
